<svg width="48" height="37" viewBox="0 0 48 37" fill="none" xmlns="http://www.w3.org/2000/svg">
<path d="M43.391 36.39C42.3057 36.39 41.3696 36.0237 40.5827 35.2911C39.823 34.5313 39.4431 33.5681 39.4431 32.4014C39.4431 31.2346 39.823 30.2985 40.5827 29.593C41.3696 28.8604 42.3057 28.4941 43.391 28.4941C44.5035 28.4941 45.4396 28.8604 46.1993 29.593C46.9591 30.2985 47.3389 31.2346 47.3389 32.4014C47.3389 33.5681 46.9591 34.5313 46.1993 35.2911C45.4396 36.0237 44.5035 36.39 43.391 36.39Z" fill="#EC656D"/>
<path d="M8.9649 28.2138L8.40775 16.9697L23.6531 0.609985H34.6946L19.4999 17.071L13.9285 22.8956L8.9649 28.2138ZM0 36.0644V0.609985H9.92723V36.0644H0ZM23.8051 36.0644L12.2571 21.4268L18.7908 14.4372L35.4544 36.0644H23.8051Z" fill="white"/>
</svg>
