<svg width="512" height="512" viewBox="0 0 512 512" fill="none" xmlns="http://www.w3.org/2000/svg">
<rect width="512" height="512" rx="68" fill="#201F26"/>
<path d="M410.056 398.666C401.34 398.666 393.823 395.725 387.504 389.842C381.403 383.74 378.352 376.005 378.352 366.636C378.352 357.266 381.403 349.749 387.504 344.083C393.823 338.2 401.34 335.259 410.056 335.259C418.99 335.259 426.507 338.2 432.609 344.083C438.71 349.749 441.76 357.266 441.76 366.636C441.76 376.005 438.71 383.74 432.609 389.842C426.507 395.725 418.99 398.666 410.056 398.666Z" fill="#EC656D"/>
<path d="M142.993 333.99L138.519 243.694L260.948 112.317H349.617L227.595 244.507L182.854 291.282L142.993 333.99ZM71 397.035V112.317H150.721V397.035H71ZM262.168 397.035L169.431 279.487L221.901 223.357L355.719 397.035H262.168Z" fill="white"/>
</svg>
